<?xml version="1.0" encoding="UTF-8"?>
<svg xmlns="http://www.w3.org/2000/svg">
  <path style=" stroke:none;fill-rule:nonzero;fill:rgb(64.698792%,27.49939%,34.498596%);fill-opacity:1;" d="M 436.140625 196.246094 C 435.867188 196.15625 435.558594 196.117188 435.332031 195.964844 C 435.128906 195.824219 434.921875 195.585938 434.890625 195.34375 C 434.855469 195.054688 435.003906 194.714844 435.074219 194.378906 C 434.90625 194.238281 434.554688 194.171875 434.800781 193.761719 C 435.035156 193.632813 435.269531 193.503906 435.574219 193.339844 C 435.285156 193.109375 435.082031 192.953125 434.902344 192.808594 C 435.441406 190.875 435.769531 190.226563 436.625 189.363281 C 437.867188 191.09375 437.550781 193.613281 436.140625 196.246094 M 434.363281 167.84375 C 434.953125 168.125 435.472656 168.367188 436.023438 168.625 C 435.941406 170.078125 434.894531 171.296875 434.617188 172.964844 C 435.5 171.515625 435.859375 170.171875 436.683594 169.039063 C 437.085938 169.113281 437.085938 169.410156 437.082031 169.699219 C 437.070313 170.425781 436.765625 171.113281 436.40625 171.773438 C 435.664063 173.132813 434.980469 174.507813 434.414063 175.925781 C 434.34375 176.105469 434.214844 176.269531 434.054688 176.53125 C 433.6875 176 433.378906 175.566406 433.085938 175.117188 C 432.796875 174.679688 432.109375 174.566406 432.128906 173.855469 C 433.207031 171.972656 433.792969 169.957031 434.363281 167.84375 M 425.316406 172.785156 C 425.601563 173.039063 425.917969 173.050781 426.339844 172.886719 C 427.328125 172.488281 428.273438 172.59375 429.09375 173.007813 C 430.386719 173.667969 431.558594 174.492188 432.484375 175.597656 C 433.40625 176.703125 433.90625 177.988281 433.546875 179.613281 C 433.472656 179.941406 433.453125 180.289063 433.488281 180.605469 C 433.664063 182.179688 433.957031 183.714844 434.699219 185.066406 C 435.109375 185.8125 435.515625 186.5625 435.902344 187.324219 C 436.078125 187.667969 436.199219 188.042969 436.367188 188.457031 C 436.144531 188.75 435.980469 189.101563 435.714844 189.28125 C 435.394531 189.5 435.34375 189.71875 435.304688 190.019531 C 435.285156 190.164063 435.148438 190.308594 435.101563 190.382813 C 434.632813 190.621094 434.261719 190.21875 433.765625 190.617188 C 434.148438 190.839844 434.46875 191.023438 434.796875 191.210938 C 434.6875 191.984375 434.28125 192.621094 433.945313 193.25 C 434.230469 193.984375 433.792969 194.890625 434.238281 195.539063 C 434.644531 196.136719 435.089844 196.707031 435.5625 197.347656 C 435.429688 197.574219 435.304688 197.847656 435.121094 198.082031 C 434.105469 199.402344 432.90625 200.550781 431.644531 201.632813 C 430.277344 202.804688 429.015625 204.070313 427.914063 205.492188 C 426.984375 206.691406 426.078125 207.910156 425.140625 209.101563 C 424.144531 210.367188 423.140625 211.625 421.867188 212.652344 C 421.28125 213.125 420.734375 213.65625 420.167969 214.160156 C 420.007813 214.300781 419.84375 214.4375 419.6875 214.570313 C 419.007813 214.015625 419.773438 213.601563 419.992188 213.085938 C 419.707031 213.046875 419.449219 213.011719 419.164063 212.972656 C 418.972656 212.582031 418.785156 212.203125 418.617188 211.871094 C 418.757813 211.527344 418.863281 211.261719 419.035156 210.84375 C 418.613281 211.046875 418.359375 211.167969 418.140625 211.273438 C 417.523438 210.90625 416.957031 210.570313 416.394531 210.230469 C 416.363281 210.210938 416.355469 210.164063 416.335938 210.128906 C 416.351563 209.859375 416.371094 209.589844 416.402344 209.140625 C 416.042969 209.441406 415.828125 209.625 415.5625 209.847656 C 415.269531 209.703125 414.917969 209.59375 414.660156 209.378906 C 414.414063 209.175781 414.265625 208.863281 414.035156 208.542969 C 413.84375 208.828125 413.683594 209.070313 413.503906 209.335938 C 413.15625 209.34375 412.839844 209.347656 412.550781 209.351563 C 412.433594 209.054688 412.339844 208.824219 412.25 208.59375 C 411.578125 208.875 412 209.304688 411.769531 209.722656 C 411.648438 209.816406 411.410156 209.957031 411.238281 210.148438 C 411.121094 210.273438 411.09375 210.476563 411.015625 210.679688 C 411.558594 210.671875 411.996094 210.664063 412.339844 210.660156 C 412.613281 210.457031 412.839844 210.179688 413.019531 210.179688 C 413.359375 210.183594 413.671875 210.347656 414.027344 210.453125 C 414.535156 210.0625 414.90625 210.304688 415.246094 210.617188 C 415.257813 210.84375 415.265625 211.03125 415.273438 211.238281 C 415.5625 211.09375 415.792969 210.980469 416.019531 210.867188 C 416.742188 211.183594 417.582031 211.332031 417.496094 212.378906 C 418.199219 212.710938 418.367188 212.859375 418.414063 213.582031 C 418.429688 213.84375 418.476563 214.015625 418.621094 214.203125 C 418.828125 214.46875 418.957031 214.789063 419.164063 215.171875 C 418.542969 215.601563 417.992188 216.070313 417.382813 216.386719 C 416.199219 217 414.996094 217.246094 413.902344 216.632813 C 413.429688 216.367188 412.957031 216.089844 412.550781 215.746094 C 411.246094 214.648438 410.828125 213.023438 410.535156 211.351563 C 410.480469 211.042969 410.519531 210.683594 410.613281 210.363281 C 411.101563 208.691406 411.855469 207.109375 412.960938 205.675781 C 413.480469 205.007813 414.109375 204.425781 414.855469 203.988281 C 415.660156 203.519531 416.460938 203.039063 417.257813 202.550781 C 418.660156 201.6875 420.0625 200.820313 421.179688 199.546875 C 421.886719 198.738281 422.636719 197.964844 423.328125 197.144531 C 423.816406 196.566406 424.28125 195.964844 424.683594 195.328125 C 425.15625 194.582031 425.621094 193.808594 425.949219 193.007813 C 426.238281 192.292969 426.449219 191.515625 426.492188 190.785156 C 426.613281 188.660156 426.253906 186.640625 425.878906 184.628906 C 425.710938 183.726563 425.484375 182.808594 425.542969 181.875 C 425.714844 179.042969 425.769531 176.246094 425.328125 173.527344 C 425.289063 173.292969 425.34375 173.035156 425.355469 172.785156 C 424.882813 169.96875 426.089844 164.242188 427.609375 162.785156 C 427.84375 162.925781 428.09375 163.078125 428.386719 163.253906 C 428.242188 163.792969 428.164063 164.296875 427.976563 164.777344 C 427.441406 166.125 427.21875 167.5 426.972656 168.875 C 426.945313 169.03125 426.816406 169.285156 427.105469 169.34375 C 427.347656 168.414063 427.570313 167.503906 427.824219 166.597656 C 428.089844 165.652344 428.394531 164.714844 428.964844 163.738281 C 429.347656 164.007813 429.679688 164.242188 429.96875 164.445313 C 430.003906 165.660156 429.320313 166.695313 429.179688 167.777344 C 429.039063 168.828125 428.472656 169.847656 428.472656 170.910156 C 429.492188 169.058594 429.484375 166.984375 430.5625 165.136719 C 431.722656 165.699219 431.785156 165.761719 431.535156 166.890625 C 431.203125 168.371094 430.8125 169.847656 430.433594 171.371094 C 430.792969 171.046875 430.945313 170.636719 431.074219 170.242188 C 431.328125 169.464844 431.539063 168.675781 431.777344 167.894531 C 431.894531 167.496094 431.914063 167.054688 432.410156 166.734375 C 432.855469 167.042969 433.289063 167.34375 433.710938 167.636719 C 433.5625 168.394531 433.378906 169.101563 433.296875 169.804688 C 433.160156 171 432.601563 172.105469 432.144531 173.230469 C 432.074219 173.402344 431.871094 173.539063 431.703125 173.726563 C 431.203125 173.398438 430.742188 173.113281 430.304688 172.800781 C 428.800781 171.746094 427.160156 171.625 425.316406 172.785156 M 426.945313 162.375 C 426.71875 162.78125 426.402344 163.21875 426.222656 163.691406 C 425.371094 165.894531 424.71875 168.113281 424.679688 170.382813 C 424.664063 171.207031 424.578125 172.039063 424.535156 172.867188 C 424.503906 173.488281 424.582031 174.074219 424.703125 174.667969 C 424.859375 175.40625 424.828125 176.207031 424.828125 176.988281 C 424.824219 178.636719 424.75 180.292969 424.78125 181.933594 C 424.800781 182.828125 424.964844 183.695313 425.078125 184.574219 C 425.277344 186.132813 425.480469 187.691406 425.691406 189.246094 C 425.9375 191.050781 425.457031 192.785156 424.488281 194.496094 C 423.898438 195.542969 423.195313 196.515625 422.367188 197.402344 C 421.570313 198.25 420.71875 199.050781 419.921875 199.902344 C 419.234375 200.636719 418.425781 201.183594 417.597656 201.707031 C 416.847656 202.183594 416.085938 202.652344 415.308594 203.070313 C 414.515625 203.5 413.847656 204.066406 413.175781 204.667969 C 412.386719 205.378906 411.765625 206.171875 411.300781 207.082031 C 410.898438 207.863281 410.484375 208.644531 410.125 209.441406 C 409.660156 210.46875 409.496094 211.496094 409.839844 212.488281 C 409.902344 212.671875 409.964844 212.859375 410 213.058594 C 410.382813 215.175781 411.746094 216.496094 413.46875 217.496094 C 414.585938 218.144531 415.847656 217.867188 417.082031 217.273438 C 418.03125 216.816406 418.925781 216.234375 419.703125 215.453125 C 420.839844 214.304688 421.960938 213.117188 423.214844 212.121094 C 424.476563 211.121094 425.375 209.894531 426.285156 208.640625 C 427.019531 207.632813 427.761719 206.628906 428.542969 205.652344 C 429.664063 204.253906 430.9375 202.988281 432.3125 201.828125 C 433.515625 200.808594 434.570313 199.648438 435.566406 198.441406 C 436.910156 196.808594 437.652344 194.945313 438.113281 193.019531 C 438.453125 191.605469 438.113281 190.304688 437.617188 189.105469 C 437.09375 187.839844 436.496094 186.609375 435.851563 185.414063 C 435.164063 184.140625 434.597656 182.832031 434.363281 181.339844 C 434.214844 180.40625 434.242188 179.472656 434.449219 178.507813 C 434.933594 176.238281 435.816406 174.070313 437.027344 171.984375 C 437.457031 171.25 437.785156 170.5 437.847656 169.683594 C 437.929688 168.570313 437.667969 168.160156 436.671875 167.78125 C 435.972656 167.515625 435.28125 167.234375 434.609375 166.914063 C 433.6875 166.476563 432.910156 165.867188 432.179688 165.164063 C 431.238281 164.261719 430.179688 163.476563 429.132813 162.691406 C 428.515625 162.226563 428.144531 162.21875 426.945313 162.375 "/>
</svg>
