<svg width="57" height="51" viewBox="0 0 57 51" fill="none" xmlns="http://www.w3.org/2000/svg">
<path d="M44.0523 18.818C45.9925 20.2128 47.8236 19.605 49.6079 19.0518C52.3195 18.2102 53.8155 16.1766 54.6648 13.5896C54.9453 12.7247 54.9765 11.7897 54.4389 11.0027C52.6234 8.33011 50.5663 5.87566 47.7223 4.23157C47.2859 3.98223 46.7405 3.9199 46.1483 3.74848C45.8288 4.3952 45.4392 4.90947 45.3068 5.48607C44.6055 8.52491 43.912 11.556 43.3432 14.6182C43.0861 16.0285 43.2575 17.47 44.0523 18.818ZM21.6116 24.9502C24.144 26.9528 25.0946 29.9526 26.3335 32.7655C27.6269 35.7186 26.9335 38.7341 26.4036 41.8587C28.749 42.6612 30.9151 42.5054 32.8943 41.3132C36.9305 38.8821 39.2992 35.4381 39.1356 30.5214C39.0577 28.254 38.6914 26.0956 37.811 23.9918C36.5643 20.9919 33.8838 19.6128 30.6892 20.4076C29.2165 20.766 27.7282 21.1088 26.2322 21.2958C24.9076 21.4595 23.5518 21.4361 22.2116 21.4127C21.8298 21.4049 21.4558 21.1166 20.6844 20.7972C21.3934 20.4309 21.7363 20.1037 22.0791 20.1037C24.8764 20.0959 27.5802 19.5816 30.2996 18.9505C31.4839 18.6778 32.7774 18.8336 34.0163 18.8414C34.8968 18.8492 35.7929 19.192 36.8058 18.4674C36.7045 17.0882 36.5409 15.5922 36.4941 14.1039C36.4552 12.678 36.5331 11.2443 36.8136 9.7872C36.9071 10.5664 36.9928 11.3378 37.0863 12.117C37.1954 13.0053 37.2811 13.8857 37.4136 14.774C37.5694 15.8337 37.7097 16.9012 37.9824 17.9297C38.3486 19.3323 38.8551 19.7297 40.2342 19.7686C40.8342 19.792 41.4342 19.6128 42.1277 19.5115C42.0965 18.9427 42.1355 18.4985 42.042 18.0856C41.4108 15.2805 41.9407 12.5689 42.6341 9.86512C43.1718 7.79247 43.725 5.72762 44.2938 3.56147C43.8419 3.19525 43.4445 2.88358 42.9614 2.49398C42.4861 2.82903 42.0731 3.13292 41.6602 3.42901C41.5043 3.01604 41.3485 2.61086 41.1069 1.98751C39.0577 1.83946 36.9383 1.59791 34.8111 1.55116C30.1204 1.43428 25.5309 2.25243 20.9883 3.28096C17.739 4.0134 14.6067 5.1666 12.2847 7.74572C11.1549 9.00022 10.2432 10.4495 9.21469 11.7975C8.79393 12.3585 8.342 12.8884 7.60956 13.7844C7.62514 12.9897 7.50047 12.5533 7.6641 12.2884C9.93155 8.47037 12.5262 5.08868 16.8352 3.21863C19.8351 1.90959 22.8895 1.05248 26.0919 0.623924C30.6268 0.000571944 35.1773 -0.264352 39.7434 0.343416C41.3485 0.561589 42.9224 0.842096 44.3639 1.63687C44.7458 1.85504 45.1821 2.04984 45.6106 2.09659C47.8859 2.35372 49.5845 3.67835 51.1585 5.14323C52.6 6.48343 53.909 7.96389 55.2025 9.44435C56.5037 10.917 56.6284 12.5767 56.0596 14.4623C54.4545 19.753 49.3897 21.7711 45.1431 20.8751C44.0834 20.6491 43.1095 20.4933 42.0498 21.0777C41.4809 21.3893 40.6394 21.2802 39.9381 21.2413C39.2447 21.1945 38.5668 20.9997 37.6006 20.8127C38.0759 21.9426 38.4187 22.9165 38.8784 23.8282C40.4135 26.9138 40.9043 30.2565 40.2732 33.5135C39.2914 38.6172 35.2942 43.4092 29.2788 43.5729C28.3828 43.5962 27.4945 43.6742 26.4737 43.7287C25.6712 44.6248 24.8297 45.5442 24.0115 46.4792C22.4375 48.2948 20.5831 49.4947 18.0975 49.7674C15.3391 50.0635 12.6353 50.6401 9.82246 50.3986C7.46931 50.196 5.58366 49.3778 3.90841 47.6636C0.822815 44.4767 -0.400514 40.8145 0.113753 36.4043C0.479972 33.3343 1.09553 30.4046 2.73962 27.7553C3.19935 27.0229 3.58894 26.1736 4.90577 26.1969C4.80447 26.6956 4.77331 27.1164 4.61747 27.4826C4.08762 28.7215 3.51102 29.9293 2.95 31.1526C1.53967 34.2616 1.2202 37.5731 1.64096 40.8769C1.9916 43.7131 3.54219 46.113 5.80963 47.8584C7.68748 49.2921 9.93934 49.5882 12.1834 48.7701C14.1548 48.0532 16.1027 47.648 18.2221 47.8428C20.0766 48.0143 21.5649 47.0792 22.4609 45.5053C23.6842 43.3469 25.1647 41.2431 25.079 38.5705C26.5984 33.9031 24.2063 30.2721 21.9233 26.6099C21.6506 26.1891 21.3778 25.7684 21.1129 25.3398C21.2766 25.2074 21.448 25.0827 21.6116 24.9502Z" fill="#A54658" fill-opacity="0.7"/>
</svg>
