<svg width="24" height="22" viewBox="0 0 24 22" fill="none" xmlns="http://www.w3.org/2000/svg">
<path d="M23.0323 10.8223L12.5739 0.371561C12.4986 0.296111 12.4091 0.236251 12.3107 0.195409C12.2122 0.154567 12.1066 0.133545 12 0.133545C11.8934 0.133545 11.7879 0.154567 11.6894 0.195409C11.591 0.236251 11.5015 0.296111 11.4262 0.371561L0.967822 10.8223C0.663135 11.127 0.490479 11.5409 0.490479 11.9725C0.490479 12.8688 1.21919 13.5975 2.11548 13.5975H3.21743V21.0548C3.21743 21.5042 3.58052 21.8673 4.02993 21.8673H10.375V16.1798H13.2188V21.8673H19.9702C20.4196 21.8673 20.7827 21.5042 20.7827 21.0548V13.5975H21.8846C22.3163 13.5975 22.7301 13.4274 23.0348 13.1202C23.667 12.4854 23.667 11.4571 23.0323 10.8223V10.8223Z" fill="black"/>
</svg>
