<?xml version="1.0" encoding="UTF-8" standalone="no"?>
<!DOCTYPE svg PUBLIC "-//W3C//DTD SVG 20010904//EN"
              "http://www.w3.org/TR/2001/REC-SVG-20010904/DTD/svg10.dtd">

<svg xmlns="http://www.w3.org/2000/svg"
     width="12in" height="7.515in"
     viewBox="0 0 4800 3006">
  <path id="Outline"
        fill="none" stroke="black" stroke-width="1"
        d="M 2068.00,1083.00
           C 2068.00,1083.00 2044.00,1093.52 2044.00,1093.52
             2039.76,1095.81 2036.01,1099.59 2032.00,1102.44
             2032.00,1102.44 2022.41,1108.56 2022.41,1108.56
             2021.59,1109.63 2021.94,1110.69 2022.41,1111.59
             2025.27,1114.86 2031.55,1113.62 2035.00,1112.54
             2041.05,1110.65 2045.68,1106.79 2051.00,1103.72
             2051.00,1103.72 2062.00,1098.58 2062.00,1098.58
             2064.45,1097.54 2070.17,1095.00 2072.72,1095.32
             2074.93,1095.60 2076.69,1097.62 2079.01,1098.88
             2079.01,1098.88 2092.15,1103.75 2092.15,1103.75
             2099.00,1104.77 2103.45,1097.68 2100.36,1095.02
             2099.11,1093.94 2095.71,1093.96 2094.00,1093.64
             2094.00,1093.64 2085.00,1091.00 2085.00,1091.00
             2087.96,1089.24 2091.63,1086.89 2095.00,1086.20
             2104.13,1084.33 2116.20,1089.16 2122.00,1073.00
             2130.00,1077.76 2134.10,1084.44 2142.00,1086.39
             2145.75,1087.32 2154.13,1085.94 2158.00,1085.00
             2158.00,1085.00 2158.86,1077.07 2158.86,1077.07
             2158.86,1077.07 2158.00,1058.00 2158.00,1058.00
             2163.06,1059.02 2164.27,1057.79 2169.00,1057.42
             2174.41,1056.99 2183.19,1057.57 2187.96,1055.35
             2192.50,1053.24 2192.55,1050.36 2199.00,1048.22
             2199.00,1048.22 2225.00,1042.27 2225.00,1042.27
             2225.00,1042.27 2239.00,1041.23 2239.00,1041.23
             2249.37,1039.29 2251.51,1035.57 2264.00,1036.00
             2266.05,1042.76 2274.40,1045.37 2281.00,1044.83
             2296.61,1043.55 2301.89,1038.06 2311.00,1038.00
             2320.33,1037.94 2327.96,1035.96 2336.00,1031.00
             2338.08,1039.72 2346.03,1049.07 2355.00,1051.48
             2356.55,1051.63 2358.38,1051.38 2360.00,1051.48
             2360.00,1051.48 2366.00,1051.48 2366.00,1051.48
             2369.93,1051.19 2372.02,1048.64 2375.00,1046.37
             2376.94,1044.90 2380.00,1043.27 2381.49,1041.61
             2385.48,1037.20 2386.58,1029.56 2385.00,1024.00
             2385.00,1024.00 2397.00,1024.00 2397.00,1024.00
             2398.62,1031.75 2408.23,1046.76 2415.04,1050.72
             2420.07,1053.66 2429.98,1053.46 2434.74,1050.16
             2437.04,1048.57 2440.49,1043.61 2441.51,1040.99
             2443.37,1036.18 2441.12,1030.52 2441.00,1025.00
             2448.60,1025.17 2447.58,1026.16 2453.00,1026.82
             2456.60,1027.25 2465.98,1027.49 2469.00,1028.60
             2472.68,1029.95 2475.87,1034.24 2481.00,1036.59
             2486.63,1039.15 2490.25,1036.72 2493.27,1040.31
             2495.20,1042.61 2495.59,1047.93 2496.60,1051.00
             2498.48,1056.75 2505.64,1066.19 2511.04,1068.81
             2514.25,1070.37 2517.47,1070.91 2521.00,1070.98
             2538.00,1071.34 2547.73,1054.25 2548.00,1039.00
             2548.00,1039.00 2560.00,1041.00 2560.00,1041.00
             2558.31,1050.41 2556.69,1061.60 2562.42,1069.96
             2565.02,1073.75 2566.69,1073.91 2569.73,1076.49
             2571.56,1078.04 2572.93,1079.86 2575.04,1081.15
             2578.70,1083.38 2581.11,1082.54 2585.00,1082.17
             2586.86,1081.99 2589.28,1082.04 2591.00,1081.40
             2599.00,1078.44 2601.65,1070.67 2601.00,1063.00
             2601.00,1063.00 2603.16,1063.00 2603.16,1063.00
             2603.00,1064.77 2602.91,1068.41 2603.16,1070.00
             2604.74,1075.62 2610.55,1078.42 2616.00,1077.70
             2625.10,1076.49 2625.84,1070.15 2630.17,1067.92
             2632.71,1066.61 2644.92,1070.31 2647.91,1071.54
             2647.91,1071.54 2666.04,1081.74 2666.04,1081.74
             2669.76,1083.73 2675.73,1086.13 2678.86,1088.73
             2682.72,1091.94 2681.89,1094.41 2684.08,1097.90
             2687.29,1102.98 2691.47,1103.97 2697.00,1104.00
             2701.73,1104.03 2705.54,1103.61 2709.99,1105.72
             2709.99,1105.72 2719.04,1111.56 2719.04,1111.56
             2719.04,1111.56 2741.00,1122.25 2741.00,1122.25
             2746.01,1125.02 2750.69,1130.44 2757.00,1129.81
             2765.99,1128.92 2766.00,1114.30 2754.00,1117.00
             2751.39,1110.67 2742.29,1105.79 2736.00,1103.44
             2736.00,1103.44 2728.04,1100.71 2728.04,1100.71
             2724.11,1098.72 2724.37,1097.20 2719.00,1095.00
             2719.00,1095.00 2723.00,1088.00 2723.00,1088.00
             2728.65,1091.25 2730.93,1097.17 2738.00,1098.43
             2743.92,1099.48 2746.74,1094.09 2743.98,1089.21
             2741.60,1084.99 2729.38,1077.56 2727.02,1073.00
             2724.67,1068.46 2727.16,1063.23 2724.05,1055.00
             2719.88,1044.00 2718.36,1042.80 2710.17,1034.85
             2707.44,1032.19 2706.55,1030.61 2702.99,1028.73
             2698.71,1026.46 2696.33,1026.47 2692.00,1025.41
             2685.71,1023.88 2682.05,1022.81 2676.00,1026.00
             2673.32,1016.87 2662.24,1010.98 2653.00,1011.19
             2650.24,1011.25 2641.20,1013.81 2635.00,1013.49
             2630.11,1013.24 2628.43,1009.81 2622.00,1008.48
             2609.08,1005.80 2601.22,1008.15 2589.00,1012.00
             2586.90,1007.77 2585.77,1007.48 2582.28,1004.58
             2573.17,996.97 2574.56,997.12 2563.00,994.50
             2558.83,993.56 2558.60,993.13 2554.00,993.07
             2554.00,993.07 2544.10,993.07 2544.10,993.07
             2538.86,991.67 2540.41,984.77 2531.00,982.00
             2528.99,970.27 2508.57,973.48 2504.18,970.98
             2501.31,969.34 2500.07,965.79 2497.62,963.34
             2493.17,958.89 2486.07,957.01 2480.00,957.11
             2480.00,957.11 2461.04,957.11 2461.04,957.11
             2461.04,957.11 2453.91,959.73 2453.91,959.73
             2453.91,959.73 2449.00,960.38 2449.00,960.38
             2441.08,962.00 2437.41,965.16 2431.00,969.19
             2425.36,972.75 2421.68,972.86 2418.00,979.00
             2412.18,975.27 2404.02,972.79 2397.00,973.21
             2397.00,973.21 2391.27,974.09 2391.27,974.09
             2388.54,974.37 2388.11,973.94 2384.99,974.72
             2384.99,974.72 2368.00,979.81 2368.00,979.81
             2365.39,979.87 2361.96,977.49 2359.00,976.63
             2355.08,975.50 2344.98,974.35 2341.00,975.00
             2337.50,966.08 2326.36,958.84 2317.00,957.13
             2317.00,957.13 2308.00,957.13 2308.00,957.13
             2299.24,957.05 2301.66,957.97 2295.00,959.47
             2295.00,959.47 2289.00,960.21 2289.00,960.21
             2289.00,960.21 2282.00,961.88 2282.00,961.88
             2282.00,961.88 2268.18,959.41 2268.18,959.41
             2266.52,958.74 2266.19,958.11 2265.00,957.00
             2252.82,960.79 2250.41,957.84 2241.00,959.82
             2226.66,962.83 2219.18,969.78 2215.00,971.28
             2210.56,972.86 2203.98,971.72 2194.00,975.86
             2181.94,980.87 2174.08,987.29 2165.24,996.72
             2161.61,1000.59 2160.47,1004.79 2156.90,1007.15
             2153.00,1009.71 2146.83,1008.81 2140.00,1011.94
             2137.20,1013.22 2131.40,1015.81 2129.21,1017.63
             2126.10,1020.22 2125.32,1023.28 2120.98,1026.11
             2117.87,1028.15 2112.21,1029.41 2105.21,1035.04
             2101.80,1037.78 2099.15,1041.66 2094.91,1043.28
             2089.82,1045.24 2065.25,1046.88 2065.00,1063.00
             2064.96,1066.02 2064.64,1078.57 2065.57,1080.59
             2066.24,1082.04 2066.88,1082.16 2068.00,1083.00 Z
           M 2325.00,978.00
           C 2318.31,980.53 2317.95,979.71 2310.87,983.19
             2309.10,984.06 2305.74,986.45 2304.00,986.39
             2299.59,986.23 2297.22,979.56 2297.00,976.00
             2297.00,976.00 2293.00,972.00 2293.00,972.00
             2304.78,971.99 2316.16,966.97 2325.00,978.00 Z
           M 2488.00,974.00
           C 2479.60,981.71 2479.90,979.12 2475.00,981.93
             2469.24,985.22 2461.63,994.28 2460.62,1001.00
             2460.62,1001.00 2462.00,1014.00 2462.00,1014.00
             2462.00,1014.00 2442.24,1011.69 2442.24,1011.69
             2442.24,1011.69 2437.90,1003.39 2437.90,1003.39
             2437.90,1003.39 2428.00,988.00 2428.00,988.00
             2428.00,988.00 2447.00,975.75 2447.00,975.75
             2450.43,974.02 2452.46,974.18 2456.00,973.25
             2463.60,971.24 2472.04,969.30 2480.00,970.18
             2483.36,970.55 2485.30,972.17 2488.00,974.00 Z
           M 2268.00,972.00
           C 2262.40,982.00 2254.08,982.82 2252.00,996.00
             2252.00,996.00 2243.00,982.00 2243.00,982.00
             2243.00,982.00 2233.00,976.00 2233.00,976.00
             2242.00,971.53 2258.25,969.83 2268.00,972.00 Z
           M 2282.00,980.00
           C 2285.10,984.15 2291.71,991.65 2290.67,997.00
             2289.88,1001.08 2286.60,1002.63 2285.30,1008.99
             2284.17,1014.55 2286.44,1017.82 2283.50,1019.79
             2282.48,1020.47 2274.02,1020.68 2272.00,1020.83
             2270.16,1020.96 2267.92,1021.03 2266.31,1019.98
             2262.78,1017.67 2261.80,1008.84 2262.46,1005.00
             2264.39,993.80 2271.18,984.15 2282.00,980.00 Z
           M 2220.00,985.76
           C 2234.47,984.03 2239.13,1000.91 2241.08,1012.00
             2241.73,1015.71 2242.15,1025.30 2237.85,1026.70
             2234.75,1027.71 2225.05,1029.39 2222.17,1027.93
             2220.57,1027.12 2218.34,1024.73 2217.00,1023.42
             2214.37,1020.85 2210.84,1017.41 2209.42,1013.96
             2208.33,1011.31 2208.76,1009.70 2208.48,1007.00
             2208.48,1007.00 2207.73,1001.00 2207.73,1001.00
             2207.87,998.60 2208.82,997.12 2209.79,995.00
             2212.51,989.07 2213.65,988.06 2220.00,985.76 Z
           M 2202.00,986.00
           C 2202.00,986.00 2202.00,987.00 2202.00,987.00
             2202.00,987.00 2201.00,986.00 2201.00,986.00
             2201.00,986.00 2202.00,986.00 2202.00,986.00 Z
           M 2522.00,993.00
           C 2525.98,993.78 2526.23,994.41 2528.00,998.00
             2528.00,998.00 2509.00,1007.00 2509.00,1007.00
             2509.00,1007.00 2507.00,986.00 2507.00,986.00
             2512.40,986.00 2521.92,985.63 2522.00,993.00 Z
           M 2201.00,987.00
           C 2201.00,987.00 2195.55,997.00 2195.55,997.00
             2195.55,997.00 2195.55,1015.00 2195.55,1015.00
             2195.55,1015.00 2204.54,1028.87 2204.54,1028.87
             2204.54,1028.87 2210.00,1035.00 2210.00,1035.00
             2210.00,1035.00 2194.00,1037.00 2194.00,1037.00
             2193.28,1029.37 2191.67,1029.81 2187.68,1024.00
             2182.86,1017.00 2181.54,1014.27 2173.00,1011.00
             2174.10,1007.95 2175.38,1004.85 2177.45,1002.30
             2181.80,996.95 2194.42,989.08 2201.00,987.00 Z
           M 2406.00,988.00
           C 2400.77,996.94 2398.54,1000.95 2396.00,1011.00
             2396.00,1011.00 2386.68,1010.01 2386.68,1010.01
             2386.68,1010.01 2382.16,999.09 2382.16,999.09
             2382.16,999.09 2378.00,991.00 2378.00,991.00
             2387.42,986.65 2395.91,987.81 2406.00,988.00 Z
           M 2355.00,989.00
           C 2355.00,989.00 2348.00,995.00 2348.00,995.00
             2348.00,995.00 2348.00,988.00 2348.00,988.00
             2348.00,988.00 2355.00,989.00 2355.00,989.00 Z
           M 2493.00,988.00
           C 2493.00,988.00 2495.00,1018.00 2495.00,1018.00
             2492.17,1017.87 2482.22,1017.02 2480.13,1015.83
             2474.48,1012.59 2473.46,1001.88 2477.31,997.04
             2480.65,992.86 2488.05,990.13 2493.00,988.00 Z
           M 2333.99,990.00
           C 2334.01,994.44 2335.65,1007.86 2333.99,1010.94
             2331.53,1015.46 2327.32,1014.84 2323.00,1015.04
             2323.00,1015.04 2307.00,1017.00 2307.00,1017.00
             2308.86,1008.24 2309.69,1010.30 2307.00,1001.00
             2315.36,995.85 2323.87,990.56 2333.99,990.00 Z
           M 2419.00,998.00
           C 2422.75,1004.47 2423.91,1003.28 2424.00,1011.00
             2424.00,1011.00 2411.00,1011.00 2411.00,1011.00
             2411.50,1004.70 2414.13,1001.80 2419.00,998.00 Z
           M 2370.00,1012.00
           C 2370.00,1012.00 2360.00,1012.94 2360.00,1012.94
             2360.00,1012.94 2351.00,1012.94 2351.00,1012.94
             2353.80,1008.77 2356.68,1004.29 2361.02,1001.49
             2362.89,1000.27 2365.38,998.88 2367.40,1000.65
             2369.28,1002.30 2369.79,1009.45 2370.00,1012.00 Z
           M 2577.00,1018.00
           C 2577.00,1018.00 2568.00,1029.00 2568.00,1029.00
             2568.00,1029.00 2549.00,1024.00 2549.00,1024.00
             2549.00,1024.00 2547.00,1008.00 2547.00,1008.00
             2547.00,1008.00 2557.00,1007.41 2557.00,1007.41
             2565.50,1008.22 2570.72,1012.87 2577.00,1018.00 Z
           M 2534.00,1010.00
           C 2534.00,1010.00 2534.00,1011.00 2534.00,1011.00
             2534.00,1011.00 2533.00,1010.00 2533.00,1010.00
             2533.00,1010.00 2534.00,1010.00 2534.00,1010.00 Z
           M 2533.00,1011.00
           C 2533.00,1011.00 2533.00,1022.00 2533.00,1022.00
             2533.00,1022.00 2515.00,1020.00 2515.00,1020.00
             2515.00,1020.00 2533.00,1011.00 2533.00,1011.00 Z
           M 2182.00,1041.00
           C 2179.58,1041.44 2174.26,1042.62 2172.04,1042.20
             2166.25,1041.13 2165.54,1033.77 2164.67,1029.00
             2164.33,1027.15 2163.81,1024.15 2165.60,1022.82
             2167.53,1021.38 2170.32,1023.29 2171.98,1024.33
             2178.85,1028.60 2180.03,1033.65 2182.00,1041.00 Z
           M 2620.00,1023.00
           C 2620.00,1023.00 2605.00,1042.00 2605.00,1042.00
             2605.00,1042.00 2601.95,1039.46 2601.95,1039.46
             2601.95,1039.46 2597.00,1024.00 2597.00,1024.00
             2604.40,1020.85 2612.29,1020.80 2620.00,1023.00 Z
           M 2153.20,1022.00
           C 2151.30,1027.62 2152.13,1034.26 2153.20,1040.00
             2154.06,1042.91 2154.76,1043.74 2155.00,1047.00
             2147.81,1038.17 2147.53,1035.14 2137.00,1028.00
             2141.77,1023.48 2146.61,1022.54 2153.20,1022.00 Z
           M 2427.00,1023.00
           C 2427.56,1029.89 2429.94,1034.33 2425.00,1040.00
             2418.41,1035.47 2414.58,1031.80 2412.00,1024.00
             2412.00,1024.00 2427.00,1023.00 2427.00,1023.00 Z
           M 2664.00,1030.00
           C 2664.00,1030.00 2664.00,1032.00 2664.00,1032.00
             2655.56,1039.36 2650.19,1046.29 2652.00,1058.00
             2652.00,1058.00 2637.00,1053.00 2637.00,1053.00
             2638.07,1044.53 2638.51,1040.62 2638.43,1032.02
             2638.42,1030.60 2638.13,1028.96 2639.03,1027.73
             2641.08,1024.94 2653.82,1023.79 2656.91,1025.02
             2659.02,1025.85 2662.08,1028.53 2664.00,1030.00 Z
           M 2372.00,1025.05
           C 2371.98,1028.94 2372.43,1032.86 2369.64,1036.02
             2364.08,1042.29 2350.64,1038.88 2349.00,1026.00
             2349.00,1026.00 2358.00,1025.05 2358.00,1025.05
             2358.00,1025.05 2372.00,1025.05 2372.00,1025.05 Z
           M 2534.00,1037.00
           C 2532.89,1041.41 2532.29,1048.35 2529.81,1051.90
             2523.39,1061.04 2516.33,1057.61 2511.07,1049.72
             2508.61,1046.02 2507.37,1038.45 2507.00,1034.00
             2507.00,1034.00 2534.00,1037.00 2534.00,1037.00 Z
           M 2625.00,1037.00
           C 2625.00,1037.00 2624.00,1049.00 2624.00,1049.00
             2624.00,1049.00 2618.00,1047.00 2618.00,1047.00
             2618.00,1047.00 2625.00,1037.00 2625.00,1037.00 Z
           M 2713.00,1073.00
           C 2713.00,1073.00 2692.00,1076.77 2692.00,1076.77
             2692.00,1076.77 2683.00,1073.00 2683.00,1073.00
             2683.00,1073.00 2685.90,1065.28 2685.90,1065.28
             2687.84,1056.99 2686.55,1047.23 2685.00,1039.00
             2704.16,1034.40 2716.96,1059.04 2713.00,1073.00 Z
           M 2142.00,1051.00
           C 2139.19,1051.98 2128.96,1057.68 2127.11,1055.35
             2125.51,1053.33 2128.10,1051.18 2124.00,1044.00
             2130.68,1033.48 2139.28,1042.94 2142.00,1051.00 Z
           M 2671.00,1041.00
           C 2672.65,1046.80 2673.45,1061.04 2672.00,1067.00
             2664.64,1064.63 2665.04,1062.15 2664.58,1055.17
             2664.21,1049.61 2667.29,1044.86 2671.00,1041.00 Z
           M 2114.00,1042.00
           C 2114.00,1042.00 2114.00,1047.00 2114.00,1047.00
             2114.00,1047.00 2110.00,1045.00 2110.00,1045.00
             2110.00,1045.00 2114.00,1042.00 2114.00,1042.00 Z
           M 2575.00,1045.00
           C 2577.69,1045.85 2583.66,1047.41 2585.40,1049.43
             2587.77,1052.17 2588.01,1065.94 2584.57,1067.92
             2581.80,1069.51 2578.30,1066.63 2576.53,1064.70
             2571.08,1058.74 2572.47,1051.93 2575.00,1045.00 Z
           M 2098.00,1070.00
           C 2097.20,1066.23 2096.06,1056.12 2101.13,1054.90
             2106.15,1053.70 2110.97,1060.83 2108.30,1064.59
             2106.89,1066.57 2100.45,1068.96 2098.00,1070.00 Z
           M 2088.00,1055.00
           C 2088.00,1055.00 2086.57,1068.00 2086.57,1068.00
             2086.57,1068.00 2086.00,1074.34 2086.00,1074.34
             2086.00,1074.34 2077.00,1079.00 2077.00,1079.00
             2076.05,1075.64 2076.02,1074.45 2076.00,1071.00
             2075.95,1061.10 2076.93,1056.75 2088.00,1055.00 Z
           M 2602.00,1055.00
           C 2602.00,1055.00 2602.00,1062.00 2602.00,1062.00
             2602.00,1062.00 2602.00,1055.00 2602.00,1055.00 Z
           M 2619.00,1061.00
           C 2619.00,1061.00 2615.00,1065.00 2615.00,1065.00
             2615.00,1065.00 2614.00,1060.00 2614.00,1060.00
             2614.00,1060.00 2619.00,1061.00 2619.00,1061.00 Z
           M 2146.00,1063.00
           C 2146.00,1063.00 2147.00,1074.00 2147.00,1074.00
             2142.02,1072.81 2138.87,1071.35 2136.00,1067.00
             2136.00,1067.00 2146.00,1063.00 2146.00,1063.00 Z
           M 2098.00,1070.00
           C 2098.00,1070.00 2098.00,1071.00 2098.00,1071.00
             2098.00,1071.00 2097.00,1070.00 2097.00,1070.00
             2097.00,1070.00 2098.00,1070.00 2098.00,1070.00 Z
           M 2654.00,1176.00
           C 2654.00,1178.82 2653.77,1183.46 2654.74,1186.00
             2656.20,1189.82 2660.16,1192.84 2662.73,1196.00
             2662.73,1196.00 2667.31,1202.71 2667.31,1202.71
             2667.31,1202.71 2675.60,1212.44 2675.60,1212.44
             2675.60,1212.44 2683.68,1224.67 2683.68,1224.67
             2686.07,1227.49 2689.14,1228.49 2690.98,1231.04
             2692.63,1233.33 2691.77,1234.74 2693.74,1237.59
             2693.74,1237.59 2701.63,1247.28 2701.63,1247.28
             2701.63,1247.28 2713.96,1265.00 2713.96,1265.00
             2713.96,1265.00 2718.40,1273.00 2718.40,1273.00
             2718.40,1273.00 2730.45,1292.00 2730.45,1292.00
             2730.45,1292.00 2733.88,1301.00 2733.88,1301.00
             2733.88,1301.00 2742.51,1316.00 2742.51,1316.00
             2742.51,1316.00 2757.67,1345.99 2757.67,1345.99
             2757.67,1345.99 2762.10,1352.28 2762.10,1352.28
             2762.10,1352.28 2770.68,1368.00 2770.68,1368.00
             2770.68,1368.00 2778.78,1387.00 2778.78,1387.00
             2778.78,1387.00 2782.82,1395.91 2782.82,1395.91
             2782.82,1395.91 2787.05,1403.04 2787.05,1403.04
             2787.05,1403.04 2798.37,1432.09 2798.37,1432.09
             2798.37,1432.09 2806.25,1448.00 2806.25,1448.00
             2810.56,1457.21 2813.81,1467.29 2816.80,1477.00
             2816.80,1477.00 2820.66,1493.00 2820.66,1493.00
             2820.66,1493.00 2825.41,1509.00 2825.41,1509.00
             2825.41,1509.00 2826.90,1517.00 2826.90,1517.00
             2826.90,1517.00 2831.74,1536.00 2831.74,1536.00
             2831.74,1536.00 2832.38,1547.00 2832.38,1547.00
             2832.38,1547.00 2833.98,1553.00 2833.98,1553.00
             2836.32,1565.82 2841.13,1604.85 2841.00,1617.00
             2841.00,1617.00 2840.41,1627.00 2840.41,1627.00
             2840.70,1630.08 2841.77,1631.27 2841.62,1635.00
             2840.88,1654.39 2839.28,1673.56 2840.47,1693.00
             2840.47,1693.00 2840.47,1711.00 2840.47,1711.00
             2840.47,1711.00 2839.79,1746.00 2839.79,1746.00
             2839.79,1746.00 2837.94,1754.00 2837.94,1754.00
             2837.94,1754.00 2834.47,1774.00 2834.47,1774.00
             2834.47,1774.00 2832.17,1781.00 2832.17,1781.00
             2832.17,1781.00 2832.17,1787.42 2832.17,1787.42
             2832.17,1787.42 2830.12,1794.00 2830.12,1794.00
             2830.12,1794.00 2827.73,1809.58 2827.73,1809.58
             2827.73,1809.58 2823.72,1821.00 2823.72,1821.00
             2823.72,1821.00 2819.89,1836.42 2819.89,1836.42
             2819.89,1836.42 2817.37,1842.00 2817.37,1842.00
             2817.37,1842.00 2813.10,1854.00 2813.10,1854.00
             2813.10,1854.00 2801.94,1887.00 2801.94,1887.00
             2801.94,1887.00 2795.29,1904.00 2795.29,1904.00
             2795.29,1904.00 2790.15,1915.00 2790.15,1915.00
             2790.15,1915.00 2777.68,1944.00 2777.68,1944.00
             2777.68,1944.00 2769.42,1956.17 2769.42,1956.17
             2769.42,1956.17 2765.74,1964.00 2765.74,1964.00
             2765.74,1964.00 2756.68,1974.99 2756.68,1974.99
             2756.68,1974.99 2745.53,1991.00 2745.53,1991.00
             2745.53,1991.00 2741.03,1997.96 2741.03,1997.96
             2741.03,1997.96 2732.00,2008.00 2732.00,2008.00
             2732.00,2008.00 2717.82,2026.00 2717.82,2026.00
             2717.82,2026.00 2709.78,2034.16 2709.78,2034.16
             2709.78,2034.16 2705.64,2039.58 2705.64,2039.58
             2705.64,2039.58 2696.17,2049.09 2696.17,2049.09
             2696.17,2049.09 2690.26,2056.91 2690.26,2056.91
             2690.26,2056.91 2686.74,2061.28 2686.74,2061.28
             2683.66,2066.45 2687.34,2070.65 2692.96,2069.76
             2697.70,2069.01 2701.12,2063.55 2703.86,2060.04
             2703.86,2060.04 2718.45,2044.42 2718.45,2044.42
             2718.45,2044.42 2732.37,2029.33 2732.37,2029.33
             2732.37,2029.33 2737.71,2024.80 2737.71,2024.80
             2737.71,2024.80 2760.13,1996.72 2760.13,1996.72
             2760.13,1996.72 2763.78,1990.17 2763.78,1990.17
             2763.78,1990.17 2769.36,1982.99 2769.36,1982.99
             2769.36,1982.99 2774.87,1974.09 2774.87,1974.09
             2774.87,1974.09 2779.37,1968.83 2779.37,1968.83
             2779.37,1968.83 2782.79,1963.00 2782.79,1963.00
             2786.65,1956.79 2793.37,1948.68 2792.00,1941.00
             2798.10,1937.87 2799.29,1929.91 2801.79,1924.00
             2803.11,1920.89 2804.37,1919.65 2805.48,1916.00
             2805.48,1916.00 2807.69,1907.00 2807.69,1907.00
             2807.69,1907.00 2814.98,1893.00 2814.98,1893.00
             2814.98,1893.00 2821.76,1874.00 2821.76,1874.00
             2821.76,1874.00 2830.32,1846.00 2830.32,1846.00
             2830.32,1846.00 2833.63,1838.00 2833.63,1838.00
             2833.63,1838.00 2836.45,1828.00 2836.45,1828.00
             2836.45,1828.00 2838.95,1821.00 2838.95,1821.00
             2838.95,1821.00 2843.51,1797.00 2843.51,1797.00
             2843.51,1797.00 2847.66,1781.00 2847.66,1781.00
             2847.66,1781.00 2847.66,1774.00 2847.66,1774.00
             2847.66,1774.00 2850.54,1763.00 2850.54,1763.00
             2850.54,1763.00 2851.29,1754.00 2851.29,1754.00
             2852.57,1744.49 2853.98,1749.69 2853.90,1734.00
             2853.90,1734.00 2853.90,1695.00 2853.90,1695.00
             2853.90,1695.00 2853.90,1674.00 2853.90,1674.00
             2853.90,1674.00 2853.90,1642.72 2853.90,1642.72
             2854.01,1636.73 2855.31,1623.50 2852.10,1619.00
             2855.88,1611.64 2853.17,1609.96 2852.10,1603.00
             2852.10,1603.00 2850.85,1580.17 2850.85,1580.17
             2850.85,1580.17 2850.85,1571.00 2850.85,1571.00
             2850.85,1571.00 2845.37,1543.00 2845.37,1543.00
             2845.37,1543.00 2842.68,1525.00 2842.68,1525.00
             2842.68,1525.00 2839.84,1516.42 2839.84,1516.42
             2839.84,1516.42 2839.84,1510.99 2839.84,1510.99
             2839.84,1510.99 2834.12,1489.01 2834.12,1489.01
             2834.12,1489.01 2828.97,1474.00 2828.97,1474.00
             2828.97,1474.00 2823.02,1451.57 2823.02,1451.57
             2823.02,1451.57 2808.79,1419.00 2808.79,1419.00
             2806.72,1415.18 2806.07,1410.59 2802.00,1409.00
             2801.89,1400.57 2797.04,1393.41 2793.43,1386.00
             2793.43,1386.00 2789.54,1376.00 2789.54,1376.00
             2789.54,1376.00 2781.09,1359.00 2781.09,1359.00
             2781.09,1359.00 2778.58,1353.00 2778.58,1353.00
             2778.58,1353.00 2772.68,1343.42 2772.68,1343.42
             2772.68,1343.42 2769.86,1337.00 2769.86,1337.00
             2769.86,1337.00 2765.10,1329.00 2765.10,1329.00
             2765.10,1329.00 2760.40,1318.00 2760.40,1318.00
             2760.40,1318.00 2749.40,1300.96 2749.40,1300.96
             2749.40,1300.96 2741.49,1286.00 2741.49,1286.00
             2741.49,1286.00 2737.20,1279.00 2737.20,1279.00
             2737.20,1279.00 2731.68,1268.00 2731.68,1268.00
             2731.68,1268.00 2725.25,1259.00 2725.25,1259.00
             2713.33,1240.40 2718.23,1242.70 2700.50,1223.25
             2697.43,1219.88 2697.05,1218.56 2693.00,1216.00
             2693.00,1216.00 2694.00,1213.00 2694.00,1213.00
             2687.00,1207.65 2677.99,1194.51 2671.41,1187.04
             2671.41,1187.04 2665.49,1180.85 2665.49,1180.85
             2661.21,1175.78 2663.16,1176.01 2654.00,1176.00 Z
           M 2050.00,1290.00
           C 2058.25,1286.02 2062.07,1275.23 2067.32,1268.17
             2067.32,1268.17 2074.54,1258.32 2074.54,1258.32
             2074.54,1258.32 2095.45,1234.00 2095.45,1234.00
             2095.45,1234.00 2104.46,1220.01 2104.46,1220.01
             2108.37,1214.03 2113.14,1211.14 2116.84,1203.00
             2117.83,1200.82 2118.70,1195.68 2115.57,1194.71
             2112.34,1193.72 2105.34,1199.82 2103.29,1202.04
             2103.29,1202.04 2078.59,1233.83 2078.59,1233.83
             2078.59,1233.83 2068.59,1244.37 2068.59,1244.37
             2068.59,1244.37 2064.19,1249.90 2064.19,1249.90
             2064.19,1249.90 2054.58,1261.00 2054.58,1261.00
             2054.58,1261.00 2030.63,1297.00 2030.63,1297.00
             2030.63,1297.00 2028.06,1302.83 2028.06,1302.83
             2028.06,1302.83 2023.48,1309.04 2023.48,1309.04
             2023.48,1309.04 2019.71,1316.00 2019.71,1316.00
             2019.71,1316.00 2003.40,1345.00 2003.40,1345.00
             2003.40,1345.00 1998.41,1354.00 1998.41,1354.00
             1998.41,1354.00 1990.79,1375.00 1990.79,1375.00
             1990.79,1375.00 1980.88,1395.00 1980.88,1395.00
             1980.88,1395.00 1978.54,1402.00 1978.54,1402.00
             1978.54,1402.00 1975.70,1408.00 1975.70,1408.00
             1975.70,1408.00 1971.05,1423.00 1971.05,1423.00
             1971.05,1423.00 1961.59,1446.00 1961.59,1446.00
             1961.59,1446.00 1959.45,1455.00 1959.45,1455.00
             1959.45,1455.00 1956.94,1460.96 1956.94,1460.96
             1956.94,1460.96 1955.05,1469.59 1955.05,1469.59
             1955.05,1469.59 1952.69,1476.00 1952.69,1476.00
             1952.69,1476.00 1950.64,1487.00 1950.64,1487.00
             1950.64,1487.00 1945.18,1509.00 1945.18,1509.00
             1945.18,1509.00 1943.53,1528.00 1943.53,1528.00
             1943.53,1528.00 1938.37,1548.00 1938.37,1548.00
             1938.37,1548.00 1936.74,1566.00 1936.74,1566.00
             1936.74,1566.00 1932.32,1590.00 1932.32,1590.00
             1932.32,1590.00 1931.02,1614.04 1931.02,1614.04
             1931.02,1614.04 1931.02,1701.00 1931.02,1701.00
             1931.02,1710.87 1933.23,1720.31 1934.73,1730.00
             1937.87,1750.36 1942.38,1770.38 1948.63,1790.00
             1948.63,1790.00 1952.79,1805.00 1952.79,1805.00
             1952.79,1805.00 1958.21,1819.99 1958.21,1819.99
             1958.21,1819.99 1962.48,1827.17 1962.48,1827.17
             1962.48,1827.17 1964.53,1834.00 1964.53,1834.00
             1964.53,1834.00 1985.07,1874.00 1985.07,1874.00
             1985.07,1874.00 1994.74,1887.42 1994.74,1887.42
             1994.74,1887.42 1997.84,1895.00 1997.84,1895.00
             1997.84,1895.00 2008.70,1913.00 2008.70,1913.00
             2008.70,1913.00 2025.39,1933.00 2025.39,1933.00
             2025.39,1933.00 2035.32,1945.96 2035.32,1945.96
             2035.32,1945.96 2041.62,1952.17 2041.62,1952.17
             2041.62,1952.17 2046.90,1959.83 2046.90,1959.83
             2046.90,1959.83 2060.21,1974.96 2060.21,1974.96
             2060.21,1974.96 2068.49,1982.21 2068.49,1982.21
             2068.49,1982.21 2082.27,1998.83 2082.27,1998.83
             2082.27,1998.83 2101.53,2016.71 2101.53,2016.71
             2106.40,2021.47 2107.28,2024.16 2114.04,2028.97
             2125.80,2037.32 2142.27,2052.84 2154.04,2058.68
             2157.88,2060.59 2166.54,2065.49 2169.13,2059.77
             2169.72,2058.46 2169.93,2056.41 2169.65,2055.00
             2168.55,2049.57 2163.10,2047.49 2159.00,2044.88
             2159.00,2044.88 2144.00,2033.68 2144.00,2033.68
             2144.00,2033.68 2134.58,2028.06 2134.58,2028.06
             2122.18,2018.67 2099.86,1995.24 2088.29,1983.33
             2088.29,1983.33 2083.10,1978.79 2083.10,1978.79
             2083.10,1978.79 2075.94,1970.28 2075.94,1970.28
             2075.94,1970.28 2058.30,1952.97 2058.30,1952.97
             2058.30,1952.97 2053.30,1945.72 2053.30,1945.72
             2053.30,1945.72 2043.16,1934.00 2043.16,1934.00
             2043.16,1934.00 2037.37,1925.42 2037.37,1925.42
             2037.37,1925.42 2027.20,1913.58 2027.20,1913.58
             2027.20,1913.58 2024.34,1908.92 2024.34,1908.92
             2024.34,1908.92 2019.05,1902.91 2019.05,1902.91
             2019.05,1902.91 2014.37,1895.17 2014.37,1895.17
             2014.37,1895.17 2008.51,1887.00 2008.51,1887.00
             2008.51,1887.00 1988.22,1847.00 1988.22,1847.00
             1988.22,1847.00 1968.81,1809.00 1968.81,1809.00
             1968.81,1809.00 1966.76,1801.00 1966.76,1801.00
             1966.76,1801.00 1962.43,1790.00 1962.43,1790.00
             1962.43,1790.00 1958.57,1773.00 1958.57,1773.00
             1958.57,1773.00 1952.78,1753.00 1952.78,1753.00
             1952.78,1753.00 1952.08,1746.00 1952.08,1746.00
             1952.08,1746.00 1948.21,1727.00 1948.21,1727.00
             1948.21,1727.00 1946.58,1713.00 1946.58,1713.00
             1946.58,1713.00 1943.18,1695.00 1943.18,1695.00
             1942.28,1687.43 1944.15,1681.30 1943.81,1677.00
             1943.81,1677.00 1942.99,1670.41 1942.99,1670.41
             1942.99,1670.41 1943.65,1664.00 1943.65,1664.00
             1943.65,1664.00 1943.65,1656.00 1943.65,1656.00
             1943.65,1656.00 1943.65,1640.00 1943.65,1640.00
             1943.65,1640.00 1943.00,1631.00 1943.00,1631.00
             1943.00,1631.00 1944.75,1611.00 1944.75,1611.00
             1944.75,1611.00 1945.29,1593.00 1945.29,1593.00
             1945.29,1593.00 1947.63,1582.00 1947.63,1582.00
             1947.63,1582.00 1948.46,1572.00 1948.46,1572.00
             1948.46,1572.00 1951.39,1562.00 1951.39,1562.00
             1951.39,1562.00 1952.44,1553.00 1952.44,1553.00
             1952.44,1553.00 1954.63,1544.00 1954.63,1544.00
             1954.63,1544.00 1956.90,1532.00 1956.90,1532.00
             1956.90,1532.00 1956.90,1524.00 1956.90,1524.00
             1956.90,1524.00 1959.53,1517.04 1959.53,1517.04
             1959.53,1517.04 1960.29,1508.96 1960.29,1508.96
             1960.29,1508.96 1965.26,1491.00 1965.26,1491.00
             1965.26,1491.00 1967.35,1479.00 1967.35,1479.00
             1967.35,1479.00 1970.18,1470.00 1970.18,1470.00
             1970.18,1470.00 1971.23,1461.72 1971.23,1461.72
             1971.23,1461.72 1985.74,1422.00 1985.74,1422.00
             1985.74,1422.00 1988.84,1411.00 1988.84,1411.00
             1988.84,1411.00 1993.20,1403.00 1993.20,1403.00
             1993.20,1403.00 1999.57,1387.00 1999.57,1387.00
             1999.57,1387.00 2004.51,1378.00 2004.51,1378.00
             2004.51,1378.00 2009.05,1366.00 2009.05,1366.00
             2009.05,1366.00 2020.26,1346.00 2020.26,1346.00
             2020.26,1346.00 2029.62,1327.00 2029.62,1327.00
             2029.62,1327.00 2039.76,1311.00 2039.76,1311.00
             2039.76,1311.00 2043.49,1303.00 2043.49,1303.00
             2046.79,1297.52 2050.52,1296.96 2050.00,1290.00 Z
           M 1677.00,1638.00
           C 1673.18,1643.86 1674.01,1648.24 1674.00,1655.00
             1673.98,1668.60 1671.02,1661.51 1671.08,1676.01
             1671.08,1676.01 1671.09,1712.00 1671.09,1712.00
             1671.09,1712.00 1671.09,1726.00 1671.09,1726.00
             1671.09,1726.00 1671.96,1732.00 1671.96,1732.00
             1672.01,1735.99 1669.49,1738.85 1673.00,1742.00
             1671.95,1748.46 1673.69,1751.88 1674.72,1758.00
             1674.72,1758.00 1677.12,1775.00 1677.12,1775.00
             1677.12,1775.00 1677.12,1781.00 1677.12,1781.00
             1677.12,1781.00 1679.16,1791.91 1679.16,1791.91
             1679.16,1791.91 1679.16,1801.00 1679.16,1801.00
             1679.16,1801.00 1680.56,1807.00 1680.56,1807.00
             1680.91,1810.49 1679.78,1811.78 1680.56,1816.00
             1680.56,1816.00 1686.00,1842.72 1686.00,1842.72
             1686.00,1842.72 1688.51,1858.00 1688.51,1858.00
             1688.51,1858.00 1690.17,1865.00 1690.17,1865.00
             1690.74,1869.33 1690.47,1874.91 1694.00,1878.00
             1693.18,1883.41 1696.82,1900.39 1698.68,1905.83
             1698.68,1905.83 1700.51,1910.17 1700.51,1910.17
             1701.30,1912.92 1700.67,1915.04 1702.44,1921.00
             1702.44,1921.00 1714.71,1957.92 1714.71,1957.92
             1714.71,1957.92 1715.65,1963.17 1715.65,1963.17
             1715.65,1963.17 1720.27,1977.00 1720.27,1977.00
             1720.27,1977.00 1730.28,1997.20 1730.28,1997.20
             1730.28,1997.20 1732.01,2002.17 1732.01,2002.17
             1732.01,2002.17 1737.95,2014.00 1737.95,2014.00
             1737.95,2014.00 1768.59,2061.00 1768.59,2061.00
             1768.59,2061.00 1775.91,2070.00 1775.91,2070.00
             1775.91,2070.00 1785.06,2082.63 1785.06,2082.63
             1785.06,2082.63 1797.68,2096.29 1797.68,2096.29
             1797.68,2096.29 1801.83,2102.91 1801.83,2102.91
             1801.83,2102.91 1811.30,2115.17 1811.30,2115.17
             1811.30,2115.17 1820.75,2127.96 1820.75,2127.96
             1820.75,2127.96 1827.57,2135.05 1827.57,2135.05
             1827.57,2135.05 1838.75,2148.00 1838.75,2148.00
             1838.75,2148.00 1850.10,2162.90 1850.10,2162.90
             1850.10,2162.90 1857.79,2169.20 1857.79,2169.20
             1857.79,2169.20 1862.37,2174.39 1862.37,2174.39
             1862.37,2174.39 1867.82,2178.52 1867.82,2178.52
             1867.82,2178.52 1880.00,2189.73 1880.00,2189.73
             1880.00,2189.73 1897.00,2201.53 1897.00,2201.53
             1897.00,2201.53 1912.00,2213.30 1912.00,2213.30
             1912.00,2213.30 1917.72,2216.35 1917.72,2216.35
             1917.72,2216.35 1935.91,2227.99 1935.91,2227.99
             1935.91,2227.99 1947.96,2235.77 1947.96,2235.77
             1947.96,2235.77 1953.28,2240.01 1953.28,2240.01
             1953.28,2240.01 1960.00,2243.54 1960.00,2243.54
             1960.00,2243.54 1967.00,2248.87 1967.00,2248.87
             1967.00,2248.87 2002.00,2269.62 2002.00,2269.62
             2002.00,2269.62 2012.00,2276.20 2012.00,2276.20
             2012.00,2276.20 2022.00,2280.23 2022.00,2280.23
             2022.00,2280.23 2045.00,2293.11 2045.00,2293.11
             2045.00,2293.11 2059.00,2299.42 2059.00,2299.42
             2059.00,2299.42 2068.00,2304.49 2068.00,2304.49
             2068.00,2304.49 2085.00,2312.89 2085.00,2312.89
             2085.00,2312.89 2093.99,2318.29 2093.99,2318.29
             2093.99,2318.29 2104.84,2322.31 2104.84,2322.31
             2104.84,2322.31 2125.00,2332.27 2125.00,2332.27
             2125.00,2332.27 2138.00,2337.05 2138.00,2337.05
             2138.00,2337.05 2151.00,2343.12 2151.00,2343.12
             2151.00,2343.12 2179.00,2352.37 2179.00,2352.37
             2179.00,2352.37 2187.00,2353.63 2187.00,2353.63
             2187.00,2353.63 2197.00,2357.47 2197.00,2357.47
             2197.00,2357.47 2205.00,2358.55 2205.00,2358.55
             2205.00,2358.55 2220.00,2363.37 2220.00,2363.37
             2220.00,2363.37 2226.00,2364.46 2226.00,2364.46
             2226.00,2364.46 2232.00,2366.46 2232.00,2366.46
             2232.00,2366.46 2239.00,2367.92 2239.00,2367.92
             2239.00,2367.92 2264.00,2374.96 2264.00,2374.96
             2264.00,2374.96 2277.00,2376.67 2277.00,2376.67
             2277.00,2376.67 2292.00,2381.19 2292.00,2381.19
             2292.00,2381.19 2308.00,2383.95 2308.00,2383.95
             2308.00,2383.95 2314.58,2383.95 2314.58,2383.95
             2314.58,2383.95 2321.00,2385.79 2321.00,2385.79
             2321.00,2385.79 2333.58,2386.91 2333.58,2386.91
             2333.58,2386.91 2349.00,2388.83 2349.00,2388.83
             2349.00,2388.83 2364.00,2389.49 2364.00,2389.49
             2364.00,2389.49 2372.58,2388.98 2372.58,2388.98
             2375.89,2389.25 2377.72,2390.90 2386.00,2391.00
             2386.00,2391.00 2391.00,2391.00 2391.00,2391.00
             2391.00,2391.00 2489.00,2391.00 2489.00,2391.00
             2489.00,2391.00 2505.00,2390.10 2505.00,2390.10
             2505.00,2390.10 2514.00,2388.18 2514.00,2388.18
             2514.00,2388.18 2530.00,2386.86 2530.00,2386.86
             2530.00,2386.86 2536.42,2385.05 2536.42,2385.05
             2536.42,2385.05 2556.72,2382.13 2556.72,2382.13
             2556.72,2382.13 2565.00,2381.33 2565.00,2381.33
             2565.00,2381.33 2584.00,2375.68 2584.00,2375.68
             2584.00,2375.68 2595.00,2373.26 2595.00,2373.26
             2600.80,2372.31 2600.31,2373.99 2610.00,2370.98
             2610.00,2370.98 2630.00,2362.83 2630.00,2362.83
             2630.00,2362.83 2647.00,2357.05 2647.00,2357.05
             2647.00,2357.05 2654.00,2353.77 2654.00,2353.77
             2654.00,2353.77 2670.00,2346.89 2670.00,2346.89
             2670.00,2346.89 2696.00,2332.73 2696.00,2332.73
             2696.00,2332.73 2703.83,2330.48 2703.83,2330.48
             2703.83,2330.48 2710.04,2327.05 2710.04,2327.05
             2710.04,2327.05 2725.00,2320.71 2725.00,2320.71
             2725.00,2320.71 2732.00,2316.63 2732.00,2316.63
             2732.00,2316.63 2741.00,2313.11 2741.00,2313.11
             2741.00,2313.11 2749.00,2309.03 2749.00,2309.03
             2749.00,2309.03 2758.00,2305.10 2758.00,2305.10
             2758.00,2305.10 2763.00,2301.96 2763.00,2301.96
             2763.00,2301.96 2769.00,2299.49 2769.00,2299.49
             2769.00,2299.49 2785.00,2291.57 2785.00,2291.57
             2785.00,2291.57 2803.00,2280.53 2803.00,2280.53
             2803.00,2280.53 2811.00,2276.20 2811.00,2276.20
             2811.00,2276.20 2817.00,2271.95 2817.00,2271.95
             2817.00,2271.95 2828.00,2265.88 2828.00,2265.88
             2828.00,2265.88 2851.00,2250.40 2851.00,2250.40
             2851.00,2250.40 2870.00,2238.73 2870.00,2238.73
             2870.00,2238.73 2887.00,2227.00 2887.00,2227.00
             2887.00,2227.00 2886.00,2224.00 2886.00,2224.00
             2892.17,2221.95 2904.38,2211.24 2909.03,2206.26
             2912.23,2202.82 2911.54,2202.44 2915.98,2198.75
             2915.98,2198.75 2936.70,2180.66 2936.70,2180.66
             2936.70,2180.66 2943.21,2173.51 2943.21,2173.51
             2943.21,2173.51 2954.91,2162.83 2954.91,2162.83
             2954.91,2162.83 2966.10,2149.00 2966.10,2149.00
             2966.10,2149.00 2982.67,2132.00 2982.67,2132.00
             2982.67,2132.00 2988.85,2122.58 2988.85,2122.58
             2995.36,2114.34 3005.46,2108.69 3010.00,2099.00
             3010.00,2099.00 3013.00,2100.00 3013.00,2100.00
             3013.29,2092.87 3023.11,2085.29 3027.56,2080.00
             3027.56,2080.00 3037.26,2067.75 3037.26,2067.75
             3037.26,2067.75 3040.91,2061.83 3040.91,2061.83
             3040.91,2061.83 3050.52,2049.99 3050.52,2049.99
             3050.52,2049.99 3054.51,2043.09 3054.51,2043.09
             3056.93,2039.68 3058.94,2039.04 3063.02,2032.04
             3063.02,2032.04 3073.29,2015.00 3073.29,2015.00
             3073.29,2015.00 3093.65,1975.00 3093.65,1975.00
             3093.65,1975.00 3116.73,1928.00 3116.73,1928.00
             3116.73,1928.00 3127.24,1898.00 3127.24,1898.00
             3127.24,1898.00 3130.55,1881.00 3130.55,1881.00
             3130.55,1881.00 3133.66,1874.00 3133.66,1874.00
             3133.66,1874.00 3137.10,1858.00 3137.10,1858.00
             3137.10,1858.00 3139.63,1851.00 3139.63,1851.00
             3139.63,1851.00 3143.92,1823.17 3143.92,1823.17
             3143.92,1823.17 3143.92,1693.00 3143.92,1693.00
             3143.92,1693.00 3141.83,1657.00 3141.83,1657.00
             3141.01,1648.36 3138.98,1644.06 3139.52,1635.28
             3139.95,1628.30 3136.32,1624.53 3135.46,1618.72
             3135.46,1618.72 3135.46,1612.00 3135.46,1612.00
             3135.46,1612.00 3133.94,1605.00 3133.94,1605.00
             3133.94,1605.00 3133.94,1597.00 3133.94,1597.00
             3133.94,1597.00 3128.96,1571.00 3128.96,1571.00
             3128.96,1571.00 3126.53,1563.00 3126.53,1563.00
             3126.53,1563.00 3125.19,1552.00 3125.19,1552.00
             3125.19,1552.00 3121.38,1535.83 3121.38,1535.83
             3121.38,1535.83 3119.29,1530.00 3119.29,1530.00
             3119.29,1530.00 3114.48,1504.00 3114.48,1504.00
             3114.48,1504.00 3111.63,1496.00 3111.63,1496.00
             3111.63,1496.00 3109.33,1485.00 3109.33,1485.00
             3109.33,1485.00 3105.94,1476.00 3105.94,1476.00
             3105.94,1476.00 3101.43,1458.00 3101.43,1458.00
             3101.43,1458.00 3097.68,1449.00 3097.68,1449.00
             3097.68,1449.00 3096.37,1442.00 3096.37,1442.00
             3096.37,1442.00 3093.73,1435.00 3093.73,1435.00
             3093.73,1435.00 3091.63,1426.00 3091.63,1426.00
             3091.63,1426.00 3086.30,1411.00 3086.30,1411.00
             3086.30,1411.00 3082.31,1398.00 3082.31,1398.00
             3082.31,1398.00 3073.87,1379.09 3073.87,1379.09
             3073.87,1379.09 3071.25,1371.15 3071.25,1371.15
             3071.25,1371.15 3066.31,1362.01 3066.31,1362.01
             3066.31,1362.01 3061.59,1351.01 3061.59,1351.01
             3061.59,1351.01 3056.41,1343.85 3056.41,1343.85
             3056.41,1343.85 3049.59,1329.04 3049.59,1329.04
             3049.59,1329.04 3039.55,1313.96 3039.55,1313.96
             3039.55,1313.96 3033.18,1302.25 3033.18,1302.25
             3033.18,1302.25 3023.32,1288.91 3023.32,1288.91
             3019.36,1283.01 3014.32,1275.48 3008.00,1272.00
             3007.20,1267.54 3002.34,1261.44 2997.96,1259.73
             2995.86,1258.92 2993.23,1259.02 2991.00,1259.00
             2991.62,1271.63 2998.02,1274.68 3005.41,1283.21
             3005.41,1283.21 3023.95,1309.00 3023.95,1309.00
             3023.95,1309.00 3035.86,1328.00 3035.86,1328.00
             3035.86,1328.00 3049.60,1356.00 3049.60,1356.00
             3049.60,1356.00 3054.10,1363.00 3054.10,1363.00
             3054.10,1363.00 3057.88,1371.00 3057.88,1371.00
             3060.68,1377.28 3059.33,1377.91 3061.35,1383.00
             3061.35,1383.00 3070.76,1406.00 3070.76,1406.00
             3070.76,1406.00 3074.37,1418.00 3074.37,1418.00
             3074.37,1418.00 3078.39,1427.00 3078.39,1427.00
             3078.39,1427.00 3080.49,1436.00 3080.49,1436.00
             3080.49,1436.00 3084.57,1448.00 3084.57,1448.00
             3084.57,1448.00 3086.90,1458.00 3086.90,1458.00
             3086.90,1458.00 3098.63,1490.00 3098.63,1490.00
             3098.63,1490.00 3100.41,1500.91 3100.41,1500.91
             3100.41,1500.91 3102.51,1506.17 3102.51,1506.17
             3102.51,1506.17 3103.52,1512.00 3103.52,1512.00
             3103.52,1512.00 3105.48,1519.00 3105.48,1519.00
             3105.48,1519.00 3106.37,1526.00 3106.37,1526.00
             3106.37,1526.00 3113.03,1556.00 3113.03,1556.00
             3113.03,1556.00 3114.12,1566.00 3114.12,1566.00
             3114.12,1566.00 3118.98,1588.00 3118.98,1588.00
             3118.98,1588.00 3120.36,1598.00 3120.36,1598.00
             3120.36,1598.00 3122.58,1607.00 3122.58,1607.00
             3122.58,1607.00 3124.58,1622.28 3124.58,1622.28
             3124.58,1622.28 3127.22,1632.00 3127.22,1632.00
             3127.22,1632.00 3127.22,1644.00 3127.22,1644.00
             3127.22,1644.00 3128.88,1651.00 3128.88,1651.00
             3130.19,1657.31 3129.96,1659.79 3130.05,1666.00
             3130.05,1666.00 3130.05,1680.00 3130.05,1680.00
             3130.05,1680.00 3131.03,1688.00 3131.03,1688.00
             3131.03,1688.00 3131.03,1704.00 3131.03,1704.00
             3131.03,1704.00 3132.29,1719.00 3132.29,1719.00
             3132.29,1719.00 3131.22,1729.00 3131.22,1729.00
             3131.22,1729.00 3132.16,1743.00 3132.16,1743.00
             3132.16,1743.00 3132.16,1764.00 3132.16,1764.00
             3132.16,1764.00 3131.02,1773.00 3131.02,1773.00
             3131.02,1773.00 3132.33,1789.00 3132.33,1789.00
             3132.33,1789.00 3132.33,1801.00 3132.33,1801.00
             3132.33,1801.00 3132.86,1809.00 3132.86,1809.00
             3132.86,1809.00 3130.30,1820.00 3130.30,1820.00
             3130.30,1820.00 3128.95,1834.58 3128.95,1834.58
             3128.95,1834.58 3127.23,1840.01 3127.23,1840.01
             3127.23,1840.01 3123.59,1856.00 3123.59,1856.00
             3123.59,1856.00 3122.07,1865.00 3122.07,1865.00
             3122.07,1865.00 3119.01,1874.00 3119.01,1874.00
             3119.01,1874.00 3118.27,1880.00 3118.27,1880.00
             3116.61,1888.80 3114.05,1897.55 3111.07,1906.00
             3111.07,1906.00 3103.45,1925.00 3103.45,1925.00
             3103.45,1925.00 3099.68,1931.00 3099.68,1931.00
             3099.68,1931.00 3095.70,1939.00 3095.70,1939.00
             3095.70,1939.00 3091.88,1948.00 3091.88,1948.00
             3091.88,1948.00 3082.31,1967.00 3082.31,1967.00
             3082.31,1967.00 3079.12,1975.00 3079.12,1975.00
             3079.12,1975.00 3071.17,1989.00 3071.17,1989.00
             3071.17,1989.00 3061.54,2010.00 3061.54,2010.00
             3061.54,2010.00 3052.62,2022.96 3052.62,2022.96
             3049.94,2026.19 3047.72,2027.27 3045.10,2031.04
             3045.10,2031.04 3039.54,2040.96 3039.54,2040.96
             3039.54,2040.96 3028.70,2055.00 3028.70,2055.00
             3028.70,2055.00 3017.40,2072.00 3017.40,2072.00
             3017.40,2072.00 3009.00,2081.09 3009.00,2081.09
             3009.00,2081.09 2997.70,2095.96 2997.70,2095.96
             2997.70,2095.96 2985.71,2108.87 2985.71,2108.87
             2985.71,2108.87 2978.21,2116.01 2978.21,2116.01
             2978.21,2116.01 2960.54,2136.91 2960.54,2136.91
             2960.54,2136.91 2952.30,2145.01 2952.30,2145.01
             2952.30,2145.01 2946.54,2152.54 2946.54,2152.54
             2946.54,2152.54 2935.00,2163.00 2935.00,2163.00
             2935.00,2163.00 2924.63,2174.78 2924.63,2174.78
             2924.63,2174.78 2917.43,2180.06 2917.43,2180.06
             2917.43,2180.06 2906.17,2190.27 2906.17,2190.27
             2906.17,2190.27 2886.00,2210.23 2886.00,2210.23
             2886.00,2210.23 2869.00,2223.04 2869.00,2223.04
             2869.00,2223.04 2854.09,2232.21 2854.09,2232.21
             2854.09,2232.21 2843.28,2239.95 2843.28,2239.95
             2843.28,2239.95 2836.99,2245.05 2836.99,2245.05
             2836.99,2245.05 2828.00,2250.18 2828.00,2250.18
             2828.00,2250.18 2806.00,2263.97 2806.00,2263.97
             2806.00,2263.97 2796.00,2269.03 2796.00,2269.03
             2796.00,2269.03 2789.00,2273.48 2789.00,2273.48
             2789.00,2273.48 2774.00,2280.98 2774.00,2280.98
             2774.00,2280.98 2755.00,2291.70 2755.00,2291.70
             2755.00,2291.70 2740.09,2297.96 2740.09,2297.96
             2740.09,2297.96 2731.99,2302.74 2731.99,2302.74
             2731.99,2302.74 2701.00,2317.77 2701.00,2317.77
             2701.00,2317.77 2690.00,2321.20 2690.00,2321.20
             2690.00,2321.20 2658.91,2338.63 2658.91,2338.63
             2658.91,2338.63 2636.00,2347.82 2636.00,2347.82
             2636.00,2347.82 2627.00,2350.42 2627.00,2350.42
             2622.93,2351.91 2621.76,2353.87 2617.00,2355.30
             2611.36,2356.99 2607.51,2357.01 2602.00,2357.79
             2602.00,2357.79 2588.00,2360.59 2588.00,2360.59
             2588.00,2360.59 2570.00,2366.59 2570.00,2366.59
             2570.00,2366.59 2561.00,2367.46 2561.00,2367.46
             2561.00,2367.46 2531.00,2372.71 2531.00,2372.71
             2531.00,2372.71 2515.00,2374.13 2515.00,2374.13
             2515.00,2374.13 2507.00,2375.91 2507.00,2375.91
             2507.00,2375.91 2475.00,2378.82 2475.00,2378.82
             2475.00,2378.82 2467.00,2378.32 2467.00,2378.32
             2467.00,2378.32 2460.09,2378.32 2460.09,2378.32
             2460.09,2378.32 2454.83,2377.61 2454.83,2377.61
             2454.83,2377.61 2450.00,2378.23 2450.00,2378.23
             2450.00,2378.23 2444.00,2378.23 2444.00,2378.23
             2444.00,2378.23 2439.00,2378.23 2439.00,2378.23
             2439.00,2378.23 2433.00,2378.23 2433.00,2378.23
             2433.00,2378.23 2422.00,2378.23 2422.00,2378.23
             2422.00,2378.23 2394.00,2378.23 2394.00,2378.23
             2394.00,2378.23 2370.00,2376.68 2370.00,2376.68
             2370.00,2376.68 2345.00,2374.79 2345.00,2374.79
             2345.00,2374.79 2338.09,2373.06 2338.09,2373.06
             2338.09,2373.06 2322.00,2373.06 2322.00,2373.06
             2322.00,2373.06 2297.00,2369.62 2297.00,2369.62
             2297.00,2369.62 2291.00,2367.62 2291.00,2367.62
             2291.00,2367.62 2277.00,2364.43 2277.00,2364.43
             2277.00,2364.43 2269.00,2364.43 2269.00,2364.43
             2269.00,2364.43 2259.00,2360.31 2259.00,2360.31
             2259.00,2360.31 2245.00,2357.10 2245.00,2357.10
             2245.00,2357.10 2230.00,2352.35 2230.00,2352.35
             2230.00,2352.35 2222.00,2348.78 2222.00,2348.78
             2222.00,2348.78 2206.00,2345.83 2206.00,2345.83
             2206.00,2345.83 2200.01,2343.86 2200.01,2343.86
             2200.01,2343.86 2194.58,2342.89 2194.58,2342.89
             2194.58,2342.89 2175.00,2337.04 2175.00,2337.04
             2175.00,2337.04 2167.00,2333.46 2167.00,2333.46
             2167.00,2333.46 2159.00,2330.83 2159.00,2330.83
             2159.00,2330.83 2108.00,2309.48 2108.00,2309.48
             2108.00,2309.48 2092.09,2301.65 2092.09,2301.65
             2092.09,2301.65 2085.91,2297.63 2085.91,2297.63
             2085.91,2297.63 2069.00,2291.05 2069.00,2291.05
             2069.00,2291.05 2043.04,2277.89 2043.04,2277.89
             2043.04,2277.89 2036.83,2273.43 2036.83,2273.43
             2036.83,2273.43 2026.00,2267.69 2026.00,2267.69
             2022.00,2266.00 2021.55,2266.43 2017.00,2263.84
             2017.00,2263.84 1999.91,2252.13 1999.91,2252.13
             1999.91,2252.13 1994.00,2249.10 1994.00,2249.10
             1994.00,2249.10 1988.00,2245.06 1988.00,2245.06
             1988.00,2245.06 1981.00,2241.37 1981.00,2241.37
             1981.00,2241.37 1967.00,2232.71 1967.00,2232.71
             1967.00,2232.71 1961.17,2229.79 1961.17,2229.79
             1961.17,2229.79 1955.91,2225.95 1955.91,2225.95
             1955.91,2225.95 1948.00,2221.45 1948.00,2221.45
             1948.00,2221.45 1938.00,2214.24 1938.00,2214.24
             1933.78,2211.52 1932.07,2211.78 1929.28,2210.16
             1929.28,2210.16 1918.00,2201.30 1918.00,2201.30
             1918.00,2201.30 1910.00,2196.37 1910.00,2196.37
             1910.00,2196.37 1897.17,2186.73 1897.17,2186.73
             1888.63,2180.08 1865.62,2159.44 1858.75,2151.88
             1858.75,2151.88 1847.94,2138.00 1847.94,2138.00
             1847.94,2138.00 1839.67,2129.55 1839.67,2129.55
             1839.67,2129.55 1834.88,2123.00 1834.88,2123.00
             1834.88,2123.00 1824.87,2111.83 1824.87,2111.83
             1824.87,2111.83 1812.76,2094.83 1812.76,2094.83
             1812.76,2094.83 1808.47,2088.00 1808.47,2088.00
             1808.47,2088.00 1802.17,2081.00 1802.17,2081.00
             1802.17,2081.00 1792.13,2069.99 1792.13,2069.99
             1792.13,2069.99 1787.82,2063.58 1787.82,2063.58
             1787.82,2063.58 1779.29,2053.17 1779.29,2053.17
             1773.52,2046.46 1775.66,2044.97 1770.00,2044.00
             1768.15,2036.21 1762.67,2030.55 1758.37,2024.00
             1758.37,2024.00 1744.02,1999.00 1744.02,1999.00
             1741.25,1993.53 1742.29,1993.19 1740.84,1989.83
             1740.84,1989.83 1731.90,1971.00 1731.90,1971.00
             1731.90,1971.00 1727.55,1954.00 1727.55,1954.00
             1727.55,1954.00 1724.68,1948.00 1724.68,1948.00
             1724.68,1948.00 1721.46,1938.00 1721.46,1938.00
             1721.46,1938.00 1718.80,1932.00 1718.80,1932.00
             1718.80,1932.00 1716.90,1925.00 1716.90,1925.00
             1716.90,1925.00 1712.49,1915.00 1712.49,1915.00
             1712.49,1915.00 1709.60,1898.00 1709.60,1898.00
             1709.60,1898.00 1706.05,1887.00 1706.05,1887.00
             1706.05,1887.00 1704.34,1872.00 1704.34,1872.00
             1704.34,1872.00 1700.88,1854.42 1700.88,1854.42
             1700.88,1854.42 1700.88,1848.99 1700.88,1848.99
             1700.88,1848.99 1693.70,1813.00 1693.70,1813.00
             1693.70,1813.00 1692.67,1798.00 1692.67,1798.00
             1692.67,1798.00 1688.26,1780.00 1688.26,1780.00
             1688.26,1780.00 1686.83,1756.00 1686.83,1756.00
             1686.83,1756.00 1684.77,1738.99 1684.77,1738.99
             1684.77,1738.99 1684.77,1722.00 1684.77,1722.00
             1684.77,1722.00 1683.97,1714.00 1683.97,1714.00
             1683.97,1714.00 1683.97,1706.00 1683.97,1706.00
             1683.97,1706.00 1684.73,1698.00 1684.73,1698.00
             1684.73,1698.00 1684.73,1680.00 1684.73,1680.00
             1684.73,1680.00 1684.73,1673.00 1684.73,1673.00
             1684.73,1673.00 1686.79,1652.00 1686.79,1652.00
             1686.70,1645.29 1687.94,1646.07 1688.50,1641.00
             1689.21,1637.12 1688.05,1635.10 1688.50,1632.00
             1688.50,1632.00 1689.87,1625.00 1689.87,1625.00
             1689.87,1625.00 1695.43,1572.00 1695.43,1572.00
             1695.43,1572.00 1704.32,1536.00 1704.32,1536.00
             1704.32,1536.00 1705.10,1529.42 1705.10,1529.42
             1705.10,1529.42 1709.03,1514.04 1709.03,1514.04
             1709.03,1514.04 1710.31,1506.91 1710.31,1506.91
             1710.31,1506.91 1715.16,1490.00 1715.16,1490.00
             1715.16,1490.00 1716.37,1482.00 1716.37,1482.00
             1716.37,1482.00 1720.42,1468.00 1720.42,1468.00
             1720.42,1468.00 1722.10,1460.00 1722.10,1460.00
             1722.10,1460.00 1728.08,1441.00 1728.08,1441.00
             1728.08,1441.00 1731.95,1424.00 1731.95,1424.00
             1731.95,1424.00 1738.88,1410.00 1738.88,1410.00
             1738.88,1410.00 1750.26,1384.00 1750.26,1384.00
             1750.26,1384.00 1755.33,1372.00 1755.33,1372.00
             1755.33,1372.00 1760.65,1361.00 1760.65,1361.00
             1760.65,1361.00 1764.37,1350.09 1764.37,1350.09
             1764.37,1350.09 1779.64,1328.04 1779.64,1328.04
             1779.64,1328.04 1796.05,1304.00 1796.05,1304.00
             1796.05,1304.00 1806.34,1290.73 1806.34,1290.73
             1806.34,1290.73 1808.76,1285.66 1808.76,1285.66
             1808.76,1285.66 1820.17,1270.00 1820.17,1270.00
             1821.80,1266.80 1825.20,1259.64 1822.11,1256.59
             1819.82,1254.34 1817.09,1256.37 1815.32,1258.15
             1812.83,1260.65 1806.95,1269.63 1804.66,1273.00
             1804.66,1273.00 1794.47,1286.79 1794.47,1286.79
             1794.47,1286.79 1790.79,1290.59 1790.79,1290.59
             1790.79,1290.59 1788.18,1294.56 1788.18,1294.56
             1788.18,1294.56 1782.86,1300.05 1782.86,1300.05
             1782.86,1300.05 1776.39,1310.91 1776.39,1310.91
             1776.39,1310.91 1770.63,1317.09 1770.63,1317.09
             1765.98,1322.53 1762.26,1328.64 1759.08,1335.00
             1759.08,1335.00 1752.53,1346.00 1752.53,1346.00
             1752.53,1346.00 1744.46,1364.00 1744.46,1364.00
             1744.46,1364.00 1740.77,1371.00 1740.77,1371.00
             1740.77,1371.00 1731.08,1395.00 1731.08,1395.00
             1731.08,1395.00 1719.81,1421.00 1719.81,1421.00
             1719.81,1421.00 1715.17,1438.00 1715.17,1438.00
             1715.17,1438.00 1710.30,1452.00 1710.30,1452.00
             1710.30,1452.00 1705.18,1472.00 1705.18,1472.00
             1705.18,1472.00 1702.39,1487.00 1702.39,1487.00
             1702.39,1487.00 1699.01,1498.00 1699.01,1498.00
             1699.01,1498.00 1693.94,1520.00 1693.94,1520.00
             1693.94,1520.00 1689.37,1542.00 1689.37,1542.00
             1689.37,1542.00 1688.22,1551.00 1688.22,1551.00
             1688.22,1551.00 1685.53,1559.00 1685.53,1559.00
             1682.17,1573.43 1680.12,1587.23 1678.92,1602.00
             1678.92,1602.00 1677.28,1612.99 1677.28,1612.99
             1677.28,1612.99 1678.04,1619.28 1678.04,1619.28
             1677.99,1625.16 1673.51,1633.05 1677.00,1638.00 Z" />
</svg>
